<svg height="100%" width="100%" id="bg-svg" viewBox="0 0 1440 500" xmlns="http://www.w3.org/2000/svg" class="transition duration-300 ease-in-out delay-150"><defs><linearGradient id="gradient"><stop offset="5%" stop-color="#26a9e088"></stop><stop offset="95%" stop-color="#f6921e88"></stop></linearGradient></defs><path d="M 0,500 C 0,500 0,166 0,166 C 139.86666666666667,162.66666666666669 279.73333333333335,159.33333333333334 447,166 C 614.2666666666667,172.66666666666666 808.9333333333334,189.33333333333331 979,191 C 1149.0666666666666,192.66666666666669 1294.5333333333333,179.33333333333334 1440,166 C 1440,166 1440,500 1440,500 Z" stroke="none" stroke-width="0" fill="url(#gradient)" class="transition-all duration-300 ease-in-out delay-150"></path><defs><linearGradient id="gradient"><stop offset="5%" stop-color="#26a9e0ff"></stop><stop offset="95%" stop-color="#f6921eff"></stop></linearGradient></defs><path d="M 0,500 C 0,500 0,333 0,333 C 172,309.79999999999995 344,286.59999999999997 521,297 C 698,307.40000000000003 880,351.4 1034,363 C 1188,374.6 1314,353.8 1440,333 C 1440,333 1440,500 1440,500 Z" stroke="none" stroke-width="0" fill="url(#gradient)" class="transition-all duration-300 ease-in-out delay-150"></path></svg>